<?xml version="1.0" standalone="no"?>
<!DOCTYPE svg PUBLIC "-//W3C//DTD SVG 20010904//EN"
 "http://www.w3.org/TR/2001/REC-SVG-20010904/DTD/svg10.dtd">
<svg version="1.0" xmlns="http://www.w3.org/2000/svg"
 width="256.000000pt" height="256.000000pt" viewBox="0 0 256.000000 256.000000"
 preserveAspectRatio="xMidYMid meet">
<metadata>
Created by potrace 1.14, written by Peter Selinger 2001-2017
</metadata>
<g transform="translate(0.000000,256.000000) scale(0.100000,-0.100000)"
fill="#000000" stroke="none">
<path d="M998 2545 c-2 -2 -27 -6 -57 -10 -30 -4 -62 -9 -73 -11 -10 -2 -26
-6 -35 -8 -208 -47 -425 -195 -557 -381 -98 -137 -181 -354 -202 -530 -3 -22
-9 -64 -13 -94 -12 -74 -11 -330 0 -416 60 -450 333 -776 739 -883 110 -29
240 -44 365 -41 133 3 211 19 332 69 l92 38 67 -75 c37 -41 75 -83 84 -93 9
-10 35 -39 59 -65 l42 -46 76 68 c42 37 102 91 133 118 l56 50 73 200 c41 110
75 205 77 210 2 6 -11 26 -28 45 -18 19 -52 56 -75 81 l-42 45 29 36 c39 48
92 150 113 218 62 200 60 457 -4 620 -24 61 -247 404 -318 490 -155 186 -362
307 -591 346 -14 2 -36 7 -50 10 -26 7 -286 14 -292 9z m635 -743 c18 -40 46
-154 53 -216 17 -138 2 -415 -23 -436 -4 -4 -78 -21 -163 -39 -85 -18 -162
-40 -171 -47 -22 -20 -26 -18 -39 19 -57 152 -44 408 27 555 44 89 124 159
215 186 71 22 83 19 101 -22z"/>
</g>
</svg>
